<svg width="34" height="34" viewBox="0 0 34 34" fill="none" xmlns="http://www.w3.org/2000/svg">
<path d="M16.6667 0C13.3703 0 10.148 0.977483 7.40717 2.80884C4.66635 4.6402 2.53014 7.24317 1.26868 10.2886C0.0072214 13.334 -0.322834 16.6852 0.320253 19.9182C0.96334 23.1512 2.55069 26.1209 4.88156 28.4518C7.21244 30.7827 10.1822 32.37 13.4152 33.0131C16.6482 33.6562 19.9993 33.3261 23.0447 32.0647C26.0902 30.8032 28.6931 28.667 30.5245 25.9262C32.3559 23.1854 33.3333 19.963 33.3333 16.6667C33.3333 14.478 32.9022 12.3107 32.0647 10.2886C31.2271 8.26652 29.9994 6.4292 28.4518 4.88155C26.9041 3.33391 25.0668 2.10625 23.0447 1.26867C21.0226 0.431096 18.8554 0 16.6667 0ZM16.6667 3.33333C20.0912 3.33197 23.383 4.65822 25.85 7.03333C23.3034 8.527 20.6048 9.74499 17.8 10.6667C16.4042 8.26138 14.8038 5.98073 13.0167 3.85C14.2033 3.50833 15.4319 3.33442 16.6667 3.33333ZM9.81667 5.25C11.5628 7.24751 13.13 9.39466 14.5 11.6667C11.2285 12.479 7.87085 12.8931 4.50001 12.9H3.90001C4.84534 9.6994 6.95657 6.96968 9.81667 5.25ZM6.66667 25.5167C4.49793 23.0813 3.31014 19.9277 3.33334 16.6667C3.33334 16.5 3.33334 16.3333 3.33334 16.1833H4.46667C8.4123 16.1481 12.3357 15.5876 16.1333 14.5167C16.6667 15.5333 17.1667 16.5833 17.65 17.6667C15.0525 18.5824 12.6334 19.9414 10.5 21.6833L10 22.0833C8.81187 23.1504 7.69816 24.2975 6.66667 25.5167ZM16.6667 30C14.0102 30.0059 11.4137 29.2101 9.21667 27.7167C10.0281 26.786 10.8964 25.9065 11.8167 25.0833L12.35 24.6333C14.3219 22.9748 16.5816 21.6925 19.0167 20.85C20.0189 23.56 20.7992 26.3469 21.35 29.1833C19.8497 29.7311 18.2639 30.0077 16.6667 30ZM24.3833 27.5167C23.8381 24.9943 23.1254 22.511 22.25 20.0833H22.8167C22.8823 20.0671 22.951 20.0671 23.0167 20.0833H23.2H23.3667H24.1667C25.9206 20.0884 27.6613 20.3869 29.3167 20.9667C28.4072 23.6173 26.6798 25.9107 24.3833 27.5167ZM24.1667 16.6667C23.8167 16.6667 23.4667 16.6667 23.1333 16.6667C22.9175 16.6395 22.6992 16.6395 22.4833 16.6667C22.0303 16.6945 21.5795 16.7502 21.1333 16.8333H20.9667C20.4833 15.7167 19.9833 14.6333 19.4333 13.5C22.4177 12.4751 25.284 11.1341 27.9833 9.5C29.3224 11.6489 30.0219 14.1348 30 16.6667C30 16.95 30 17.2333 30 17.5167C28.1111 16.9337 26.1434 16.647 24.1667 16.6667Z" fill="white"/>
</svg>
