<svg width="40" height="40" viewBox="0 0 40 40" fill="none" xmlns="http://www.w3.org/2000/svg">
<path d="M34.8334 3.3335H5.16671C4.68048 3.3335 4.21416 3.52665 3.87035 3.87047C3.52653 4.21428 3.33337 4.6806 3.33337 5.16683V34.8335C3.33337 35.0743 3.38079 35.3127 3.47293 35.5351C3.56506 35.7575 3.7001 35.9596 3.87035 36.1299C4.04059 36.3001 4.24269 36.4351 4.46512 36.5273C4.68755 36.6194 4.92595 36.6668 5.16671 36.6668H21.1334V23.7502H16.8V18.7502H21.1334V15.0002C21.0436 14.1198 21.1476 13.2304 21.4379 12.3944C21.7283 11.5584 22.198 10.7961 22.8141 10.1608C23.4303 9.52562 24.178 9.0329 25.0048 8.71723C25.8315 8.40155 26.7173 8.27058 27.6 8.3335C28.8973 8.32551 30.1938 8.39229 31.4834 8.5335V13.0335H28.8334C26.7334 13.0335 26.3334 14.0335 26.3334 15.4835V18.7002H31.3334L30.6834 23.7002H26.3334V36.6668H34.8334C35.0741 36.6668 35.3125 36.6194 35.535 36.5273C35.7574 36.4351 35.9595 36.3001 36.1297 36.1299C36.3 35.9596 36.435 35.7575 36.5272 35.5351C36.6193 35.3127 36.6667 35.0743 36.6667 34.8335V5.16683C36.6667 4.92607 36.6193 4.68767 36.5272 4.46524C36.435 4.24281 36.3 4.04071 36.1297 3.87047C35.9595 3.70023 35.7574 3.56518 35.535 3.47305C35.3125 3.38092 35.0741 3.3335 34.8334 3.3335Z" fill="white"/>
</svg>
