<svg width="40" height="40" viewBox="0 0 40 40" fill="none" xmlns="http://www.w3.org/2000/svg">
<path d="M36.6667 9.66677C35.4139 10.2103 34.0891 10.5695 32.7333 10.7334C34.1636 9.87897 35.2355 8.53474 35.75 6.95011C34.4059 7.75021 32.9346 8.31393 31.4 8.61677C30.3743 7.50439 29.0083 6.76393 27.5164 6.51152C26.0244 6.25912 24.4909 6.50904 23.1563 7.22209C21.8217 7.93514 20.7616 9.07099 20.1421 10.4515C19.5226 11.832 19.3788 13.3791 19.7333 14.8501C17.0157 14.7126 14.3574 14.005 11.9311 12.7732C9.50479 11.5414 7.36475 9.81293 5.65001 7.70011C5.04857 8.75039 4.73254 9.93981 4.73334 11.1501C4.73121 12.2741 5.00704 13.3811 5.53627 14.3727C6.0655 15.3643 6.83171 16.2096 7.76668 16.8334C6.67997 16.8039 5.61649 16.5123 4.66668 15.9834V16.0668C4.67482 17.6416 5.22667 19.1653 6.22887 20.38C7.23107 21.5948 8.6221 22.4262 10.1667 22.7334C9.5721 22.9144 8.9548 23.0098 8.33334 23.0168C7.90316 23.0117 7.47405 22.9727 7.05001 22.9001C7.48986 24.2548 8.34105 25.4387 9.48514 26.287C10.6292 27.1354 12.0093 27.606 13.4333 27.6334C11.0287 29.5256 8.05982 30.5582 5.00001 30.5668C4.4429 30.5686 3.88624 30.5352 3.33334 30.4668C6.45739 32.4839 10.098 33.5546 13.8167 33.5501C16.3828 33.5768 18.9286 33.0918 21.3052 32.1236C23.6818 31.1553 25.8417 29.7232 27.6587 27.9109C29.4757 26.0986 30.9133 23.9424 31.8876 21.5683C32.8619 19.1941 33.3534 16.6497 33.3333 14.0834C33.3333 13.8001 33.3333 13.5001 33.3333 13.2001C34.6412 12.2248 35.7691 11.0291 36.6667 9.66677Z" fill="white"/>
</svg>
